<?xml version="1.0" standalone="no"?>
<!DOCTYPE svg PUBLIC "-//W3C//DTD SVG 20010904//EN"
        "http://www.w3.org/TR/2001/REC-SVG-20010904/DTD/svg10.dtd">
<svg version="1.0" xmlns="http://www.w3.org/2000/svg" width="160pt" height="160pt" preserveAspectRatio="xMidYMid meet" viewBox="0 0 160 160">
    <g id="root" stroke="none" stroke-width="1" fill="none" fill-rule="evenodd">
        <rect id="background.accent" fill="#f6f6f6" x="0" y="0" width="160" height="160"></rect>
        <path d="M23 23l0 114l114 0l0 -114l-114 0zm-2 -2l118 0l0 118l-118 0l0 -118z" id="shape.primary" fill="#004a55"
              fill-rule="nonzero"></path>
        <g id="group" transform="translate(31.000000, 111.000000)">
            <rect id="Rectangle-14" x="0" y="0" width="96" height="22"></rect>
            <text id="headerText.primary" font-family="Roboto Mono" font-size="18" font-weight="700"
                  letter-spacing=".81" fill="#004a55" data-text-alignment="R" font-style="normal">
                <tspan x="37.946311950683594" y="14">cargo</tspan>
            </text>
        </g>
        <rect id="icon.primary" x="110" y="86" width="18" height="18" display="none" fill="#004a55"></rect>
        <svg xmlns="http://www.w3.org/2000/svg" xmlns:xlink="http://www.w3.org/1999/xlink" viewBox="0 0 26 26"
             version="1.1" fill="#004a55" id="svg_icon.primary" x="110" y="86" width="18" height="18">
            <g id="surface1">
                <path style=" "
                      d="M 12.4375 0.1875 L 0 5.09375 L 0 18.53125 L 15 25.90625 L 26 18.53125 L 26 5.09375 Z M 12.46875 2.34375 L 23.6875 6.375 L 20.53125 8.0625 L 9.15625 3.65625 Z M 7.75 4.1875 L 19.34375 8.6875 L 15.59375 10.65625 L 3.4375 5.90625 Z M 2.0625 6.4375 L 15 11.5 L 15 23.5 L 14.84375 23.59375 L 2 17.28125 L 2 6.46875 Z M 22 9.5 C 22.171875 9.488281 22.273438 9.609375 22.28125 9.84375 C 22.292969 10.15625 22.101563 10.546875 21.84375 10.71875 L 19.84375 12.03125 C 19.53125 12.234375 19.261719 12.105469 19.25 11.75 C 19.238281 11.394531 19.464844 10.9375 19.78125 10.75 L 21.8125 9.5625 C 21.878906 9.523438 21.941406 9.503906 22 9.5 Z "></path>
            </g>
        </svg>
        <rect id="shape.primary" fill="#004a55" x="52" y="108" width="76" height="2"></rect>
    </g>
</svg>
